<svg width="280" height="280" viewBox="0 0 280 280" fill="none" xmlns="http://www.w3.org/2000/svg">
<g clip-path="url(#clip0_201_341)">
<path d="M110.95 44.03H168.91" stroke="#245742" stroke-width="3" stroke-linecap="round" stroke-linejoin="round"/>
<path d="M47.3301 52.23C47.3301 47.7 51.0001 44.03 55.5301 44.03H73.9401" stroke="#245742" stroke-width="3" stroke-linecap="round" stroke-linejoin="round"/>
<path d="M206.09 44.03H225.03C229.56 44.03 233.23 47.7 233.23 52.23V221.72C233.23 226.25 229.56 229.92 225.03 229.92H55.5301C51.0001 229.92 47.3301 226.25 47.3301 221.72V75.73" stroke="#245742" stroke-width="3" stroke-linecap="round" stroke-linejoin="round"/>
<path d="M233.23 87.02H47.3301" stroke="#245742" stroke-width="3" stroke-linecap="round" stroke-linejoin="round"/>
<path d="M205.15 32C205.15 22.335 197.315 14.5 187.65 14.5C177.985 14.5 170.15 22.335 170.15 32V56.06C170.15 65.725 177.985 73.56 187.65 73.56C197.315 73.56 205.15 65.725 205.15 56.06V32Z" stroke="#245742" stroke-width="3" stroke-linecap="round" stroke-linejoin="round"/>
<path d="M109.96 32C109.96 22.335 102.125 14.5 92.46 14.5C82.795 14.5 74.96 22.335 74.96 32V56.06C74.96 65.725 82.795 73.56 92.46 73.56C102.125 73.56 109.96 65.725 109.96 56.06V32Z" stroke="#245742" stroke-width="3" stroke-linecap="round" stroke-linejoin="round"/>
<path d="M114.43 100.03H99.2699C97.5578 100.03 96.1699 101.418 96.1699 103.13V118.29C96.1699 120.002 97.5578 121.39 99.2699 121.39H114.43C116.142 121.39 117.53 120.002 117.53 118.29V103.13C117.53 101.418 116.142 100.03 114.43 100.03Z" stroke="#245742" stroke-width="3" stroke-linecap="round" stroke-linejoin="round"/>
<path d="M148.72 100.03H133.56C131.848 100.03 130.46 101.418 130.46 103.13V118.29C130.46 120.002 131.848 121.39 133.56 121.39H148.72C150.432 121.39 151.82 120.002 151.82 118.29V103.13C151.82 101.418 150.432 100.03 148.72 100.03Z" stroke="#245742" stroke-width="3" stroke-linecap="round" stroke-linejoin="round"/>
<path d="M183.01 100.03H167.85C166.138 100.03 164.75 101.418 164.75 103.13V118.29C164.75 120.002 166.138 121.39 167.85 121.39H183.01C184.722 121.39 186.11 120.002 186.11 118.29V103.13C186.11 101.418 184.722 100.03 183.01 100.03Z" stroke="#245742" stroke-width="3" stroke-linecap="round" stroke-linejoin="round"/>
<path d="M217.31 100.03H202.15C200.438 100.03 199.05 101.418 199.05 103.13V118.29C199.05 120.002 200.438 121.39 202.15 121.39H217.31C219.022 121.39 220.41 120.002 220.41 118.29V103.13C220.41 101.418 219.022 100.03 217.31 100.03Z" stroke="#245742" stroke-width="3" stroke-linecap="round" stroke-linejoin="round"/>
<path d="M80.1399 132.76H64.9799C63.2678 132.76 61.8799 134.148 61.8799 135.86V151.02C61.8799 152.732 63.2678 154.12 64.9799 154.12H80.1399C81.852 154.12 83.2399 152.732 83.2399 151.02V135.86C83.2399 134.148 81.852 132.76 80.1399 132.76Z" stroke="#245742" stroke-width="3" stroke-linecap="round" stroke-linejoin="round"/>
<path d="M114.43 132.76H99.2699C97.5578 132.76 96.1699 134.148 96.1699 135.86V151.02C96.1699 152.732 97.5578 154.12 99.2699 154.12H114.43C116.142 154.12 117.53 152.732 117.53 151.02V135.86C117.53 134.148 116.142 132.76 114.43 132.76Z" stroke="#245742" stroke-width="3" stroke-linecap="round" stroke-linejoin="round"/>
<path d="M148.72 132.76H133.56C131.848 132.76 130.46 134.148 130.46 135.86V151.02C130.46 152.732 131.848 154.12 133.56 154.12H148.72C150.432 154.12 151.82 152.732 151.82 151.02V135.86C151.82 134.148 150.432 132.76 148.72 132.76Z" fill="#245742" stroke="#245742" stroke-width="3" stroke-linecap="round" stroke-linejoin="round"/>
<path d="M183.01 132.76H167.85C166.138 132.76 164.75 134.148 164.75 135.86V151.02C164.75 152.732 166.138 154.12 167.85 154.12H183.01C184.722 154.12 186.11 152.732 186.11 151.02V135.86C186.11 134.148 184.722 132.76 183.01 132.76Z" stroke="#245742" stroke-width="3" stroke-linecap="round" stroke-linejoin="round"/>
<path d="M217.31 132.76H202.15C200.438 132.76 199.05 134.148 199.05 135.86V151.02C199.05 152.732 200.438 154.12 202.15 154.12H217.31C219.022 154.12 220.41 152.732 220.41 151.02V135.86C220.41 134.148 219.022 132.76 217.31 132.76Z" stroke="#245742" stroke-width="3" stroke-linecap="round" stroke-linejoin="round"/>
<path d="M80.1399 165.49H64.9799C63.2678 165.49 61.8799 166.878 61.8799 168.59V183.75C61.8799 185.462 63.2678 186.85 64.9799 186.85H80.1399C81.852 186.85 83.2399 185.462 83.2399 183.75V168.59C83.2399 166.878 81.852 165.49 80.1399 165.49Z" stroke="#245742" stroke-width="3" stroke-linecap="round" stroke-linejoin="round"/>
<path d="M114.43 165.49H99.2699C97.5578 165.49 96.1699 166.878 96.1699 168.59V183.75C96.1699 185.462 97.5578 186.85 99.2699 186.85H114.43C116.142 186.85 117.53 185.462 117.53 183.75V168.59C117.53 166.878 116.142 165.49 114.43 165.49Z" stroke="#245742" stroke-width="3" stroke-linecap="round" stroke-linejoin="round"/>
<path d="M148.72 165.49H133.56C131.848 165.49 130.46 166.878 130.46 168.59V183.75C130.46 185.462 131.848 186.85 133.56 186.85H148.72C150.432 186.85 151.82 185.462 151.82 183.75V168.59C151.82 166.878 150.432 165.49 148.72 165.49Z" stroke="#245742" stroke-width="3" stroke-linecap="round" stroke-linejoin="round"/>
<path d="M183.01 165.49H167.85C166.138 165.49 164.75 166.878 164.75 168.59V183.75C164.75 185.462 166.138 186.85 167.85 186.85H183.01C184.722 186.85 186.11 185.462 186.11 183.75V168.59C186.11 166.878 184.722 165.49 183.01 165.49Z" stroke="#245742" stroke-width="3" stroke-linecap="round" stroke-linejoin="round"/>
<path d="M217.31 165.49H202.15C200.438 165.49 199.05 166.878 199.05 168.59V183.75C199.05 185.462 200.438 186.85 202.15 186.85H217.31C219.022 186.85 220.41 185.462 220.41 183.75V168.59C220.41 166.878 219.022 165.49 217.31 165.49Z" stroke="#245742" stroke-width="3" stroke-linecap="round" stroke-linejoin="round"/>
<path d="M80.1399 198.22H64.9799C63.2678 198.22 61.8799 199.608 61.8799 201.32V216.48C61.8799 218.192 63.2678 219.58 64.9799 219.58H80.1399C81.852 219.58 83.2399 218.192 83.2399 216.48V201.32C83.2399 199.608 81.852 198.22 80.1399 198.22Z" stroke="#245742" stroke-width="3" stroke-linecap="round" stroke-linejoin="round"/>
<path d="M114.43 198.22H99.2699C97.5578 198.22 96.1699 199.608 96.1699 201.32V216.48C96.1699 218.192 97.5578 219.58 99.2699 219.58H114.43C116.142 219.58 117.53 218.192 117.53 216.48V201.32C117.53 199.608 116.142 198.22 114.43 198.22Z" stroke="#245742" stroke-width="3" stroke-linecap="round" stroke-linejoin="round"/>
<path d="M148.72 198.22H133.56C131.848 198.22 130.46 199.608 130.46 201.32V216.48C130.46 218.192 131.848 219.58 133.56 219.58H148.72C150.432 219.58 151.82 218.192 151.82 216.48V201.32C151.82 199.608 150.432 198.22 148.72 198.22Z" stroke="#245742" stroke-width="3" stroke-linecap="round" stroke-linejoin="round"/>
<path d="M183.01 198.22H167.85C166.138 198.22 164.75 199.608 164.75 201.32V216.48C164.75 218.192 166.138 219.58 167.85 219.58H183.01C184.722 219.58 186.11 218.192 186.11 216.48V201.32C186.11 199.608 184.722 198.22 183.01 198.22Z" stroke="#245742" stroke-width="3" stroke-linecap="round" stroke-linejoin="round"/>
<path d="M242.55 188.66C246.38 186.46 249.62 185.79 252.19 186.67C254.26 187.38 255.99 189.14 257.36 191.91C257.54 192.34 257.73 192.78 257.95 193.23C258.08 193.5 258.35 193.66 258.64 193.66C258.74 193.66 258.85 193.64 258.95 193.59C259.33 193.42 259.5 192.99 259.34 192.61C259.15 192.15 258.96 191.71 258.75 191.29C256.28 185.22 257.98 180.56 263.91 177.09C264.27 176.88 264.39 176.41 264.18 176.05C263.97 175.69 263.51 175.56 263.14 175.77C257.64 178.93 252.58 177.39 247.66 171.07C247.41 170.75 246.96 170.68 246.62 170.91C246.29 171.14 246.19 171.59 246.41 171.94C248.32 175.03 248.94 177.73 248.33 180.17C247.66 182.8 245.46 185.21 241.79 187.33C241.43 187.54 241.3 188.01 241.51 188.37C241.72 188.73 242.19 188.86 242.55 188.65V188.66ZM249.8 180.55C250.2 178.96 250.15 177.26 249.66 175.47C252.72 178.15 255.9 179.27 259.21 178.79C256.84 181.27 255.82 184.18 256.18 187.51C255.14 186.43 253.97 185.67 252.68 185.23C251.79 184.93 250.84 184.77 249.84 184.77C249 184.77 248.12 184.88 247.21 185.09C248.53 183.67 249.4 182.15 249.81 180.55H249.8Z" fill="#245742"/>
<path d="M30.97 45.62C32.8601 52.71 32.5501 58.2 30.0201 61.95C27.9901 64.97 24.42 67 19.39 67.99C18.62 68.09 17.83 68.22 17.02 68.37C16.53 68.46 16.16 68.83 16.04 69.29C16 69.46 15.98 69.63 16.01 69.81C16.12 70.49 16.74 70.95 17.42 70.87C18.24 70.77 19.02 70.64 19.78 70.49C30.59 69.14 37.33 73.86 40.35 84.88C40.5301 85.55 41.23 85.95 41.9 85.77C42.57 85.59 42.9701 84.9 42.7901 84.22C40.0801 74.03 44.7301 66.57 56.9901 61.39C57.6101 61.13 57.91 60.43 57.69 59.8C57.46 59.17 56.7801 58.82 56.1301 59.01C50.34 60.74 45.75 60.59 42.09 58.55C38.15 56.35 35.22 51.78 33.4 44.97C33.22 44.29 32.5201 43.89 31.85 44.07C31.18 44.25 30.78 44.95 30.95 45.62H30.97ZM40.8701 60.76C43.25 62.09 46 62.74 49.09 62.72C43.4701 66.47 40.31 71.11 39.65 76.62C36.69 71.74 32.4501 68.87 26.95 68.01C29.13 66.8 30.8601 65.25 32.1201 63.37C32.9901 62.07 33.64 60.62 34.07 59.01C34.43 57.66 34.6401 56.21 34.6901 54.64C36.3901 57.37 38.4601 59.42 40.8601 60.77L40.8701 60.76Z" fill="#245742"/>
</g>
<defs>
<clipPath id="clip0_201_341">
<rect width="248.28" height="218.43" fill="white" transform="translate(16 13)"/>
</clipPath>
</defs>
</svg>
