<svg width="281" height="66" viewBox="0 0 281 66" fill="none" xmlns="http://www.w3.org/2000/svg">
<path d="M265.159 64.6088C253.878 64.6088 253.878 63.9274 242.596 63.9274C235.075 63.9274 227.555 63.9274 220.034 63.9274C208.752 63.9274 208.752 64.9211 197.471 64.9211C186.19 64.9211 186.19 65.2618 174.908 65.2618C163.627 65.2618 163.627 66 152.345 66C141.064 66 141.064 63.9464 129.783 63.9464C118.501 63.9464 118.501 64.0694 107.22 64.0694C95.9386 64.0694 95.9386 65.5363 84.6572 65.5363C73.3759 65.5363 73.3759 63.388 62.0945 63.388C50.8131 63.388 50.8131 63.2177 39.5318 63.2177C28.2504 63.2177 28.2504 63.2744 16.9691 63.2744C8.55504 63.2744 0 59.0536 0 52.2776C0 42.6435 3.47843 42.6435 3.47843 33.0095C3.47843 23.3754 0.893111 23.3754 0.893111 13.7413C0.893111 6.9653 8.55504 1.76973 16.9691 1.76973C28.2504 1.76973 28.2504 1.65615 39.5318 1.65615C50.8131 1.65615 50.8131 0 62.0945 0C73.3759 0 73.3759 1.23029 84.6572 1.23029C95.9386 1.23029 95.9386 2.51735 107.22 2.51735C118.501 2.51735 118.501 1.42903 129.783 1.42903C141.064 1.42903 141.064 1.12619 152.345 1.12619C163.627 1.12619 163.627 2.12934 174.908 2.12934C186.19 2.12934 186.19 0.776032 197.471 0.776032C208.752 0.776032 208.752 0.236593 220.034 0.236593C231.315 0.236593 231.315 0.511049 242.596 0.511049C253.878 0.511049 253.878 1.56152 265.159 1.56152C273.573 1.56152 281 6.97476 281 13.7508C281 23.3849 279.79 23.3849 279.79 33.0189C279.79 42.653 279.649 42.653 279.649 52.2871C279.649 59.0631 273.573 64.6183 265.147 64.6183L265.159 64.6088Z" fill="#EE7F31"/>
</svg>
