<svg width="1714" height="96" viewBox="0 0 1714 96" fill="none" xmlns="http://www.w3.org/2000/svg">
<path d="M2.78223 93.3651C7.19797 92.9236 11.5012 90.8948 15.8358 89.9433C38.0456 85.068 61.4137 84.4743 84.0185 83.0997C126.096 80.5409 168.244 78.9966 210.118 73.8482C243.256 69.7738 275.991 64.8578 309.351 62.6956C420.025 55.5223 532.438 64.2287 643.041 68.7788C679.281 70.2697 714.972 75.1155 751.271 75.1155C793.593 75.1155 834.916 81.8324 877.118 84.1136C902.148 85.4666 927.716 84.2403 952.778 84.2403C1068.7 84.2403 1184.71 92.9858 1300.79 93.3651C1340.26 93.4941 1383.29 95.1083 1421.69 85.5077C1454.57 77.2894 1490.23 77.3967 1523.84 77.3967C1571.91 77.3967 1619.55 60.0153 1667.05 54.0777C1675.26 53.0514 1707.46 46.5081 1711.41 38.6162" stroke="#245742" stroke-width="4" stroke-linecap="round"/>
<path d="M1255.46 92.2703C1255.46 84.7828 1253.66 77.5614 1252.68 70.1694C1251.32 59.9056 1250.28 49.5802 1248.25 39.4204" stroke="#245742" stroke-width="4" stroke-linecap="round"/>
<path d="M1257.38 90.829C1258.07 87.3573 1261.65 82.3442 1263.89 79.8853C1268.9 74.3835 1274.19 72.3321 1281.4 71.6108" stroke="#245742" stroke-width="4" stroke-linecap="round"/>
<path d="M513.637 62.0016C513.553 51.4009 513.391 41.191 510.273 30.9589C508.889 26.4153 507.601 22.9529 505.469 18.7073C502.44 12.6776 498.255 7.894 494.418 2.42529" stroke="#245742" stroke-width="4" stroke-linecap="round"/>
<path d="M513.637 60.5603C515.209 54.2696 517.18 48.0049 519.722 42.0362C521.521 37.8137 523.566 33.7695 526.235 30.0248C531.046 23.2755 528.289 28.2019 533.335 22.124" stroke="#245742" stroke-width="4" stroke-linecap="round"/>
<path d="M339.712 61.5215C340.501 56.3955 347.812 52.2486 351.911 50.3643C359.731 46.7697 368.944 46.3508 377.188 48.5493" stroke="#245742" stroke-width="4" stroke-linecap="round"/>
<path d="M338.752 59.1193C338.183 55.0543 333.565 53.5062 330.104 52.4463C320.188 49.41 309.584 49.1613 299.354 48.0688" stroke="#245742" stroke-width="4" stroke-linecap="round"/>
<path d="M337.791 59.5996C338.5 48.6636 339.514 38.3537 345.958 29.3311" stroke="#245742" stroke-width="4" stroke-linecap="round"/>
<path d="M1256.42 92.3337C1255.72 79.3814 1263.7 68.2506 1269.99 57.6655" stroke="#245742" stroke-width="4" stroke-linecap="round"/>
</svg>
