<svg width="280" height="280" viewBox="0 0 280 280" fill="none" xmlns="http://www.w3.org/2000/svg">
<g clip-path="url(#clip0_201_325)">
<path d="M244.17 188.91C239.92 186.1 237.54 183.1 237.13 179.99C236.79 177.48 237.71 174.78 239.87 171.94C240.23 171.53 240.58 171.1 240.92 170.65C241.13 170.38 241.15 170.01 241.01 169.72C240.96 169.61 240.88 169.51 240.78 169.43C240.41 169.13 239.87 169.17 239.56 169.53C239.18 169.96 238.83 170.39 238.51 170.82C233.52 176.51 227.83 177.17 221.18 172.84C220.77 172.58 220.23 172.69 219.96 173.09C219.69 173.5 219.81 174.04 220.21 174.31C226.32 178.35 227.35 184.38 223.36 192.73C223.16 193.15 223.32 193.66 223.73 193.88C224.14 194.1 224.65 193.97 224.9 193.57C227.11 190 229.57 187.96 232.41 187.33C235.47 186.66 239.1 187.68 243.19 190.38C243.6 190.65 244.14 190.54 244.41 190.13C244.68 189.73 244.56 189.18 244.16 188.91H244.17ZM232.04 185.61C230.19 186.02 228.46 186.95 226.86 188.38C228.05 183.83 227.55 179.97 225.35 176.8C229.14 177.97 232.67 177.51 235.92 175.42C235.35 177.06 235.16 178.66 235.37 180.22C235.52 181.3 235.85 182.35 236.37 183.39C236.8 184.26 237.37 185.11 238.06 185.95C235.91 185.31 233.89 185.2 232.03 185.61H232.04Z" fill="#245742"/>
<path d="M77.7301 79.23C73.4801 76.42 71.1001 73.42 70.6901 70.31C70.3501 67.8 71.2701 65.1 73.4301 62.26C73.7901 61.85 74.1401 61.42 74.4801 60.97C74.6901 60.7 74.7101 60.33 74.5701 60.04C74.5201 59.93 74.4401 59.83 74.3401 59.75C73.9701 59.45 73.4301 59.49 73.1201 59.85C72.7401 60.28 72.3901 60.71 72.0701 61.14C67.0801 66.83 61.3901 67.49 54.7401 63.16C54.3301 62.9 53.7901 63.01 53.5201 63.41C53.2501 63.82 53.3701 64.36 53.7701 64.63C59.8801 68.67 60.9101 74.7 56.9201 83.05C56.7201 83.47 56.8801 83.98 57.2901 84.2C57.7001 84.42 58.2101 84.29 58.4601 83.89C60.6701 80.32 63.1301 78.28 65.9701 77.65C69.0301 76.98 72.6601 78 76.7501 80.7C77.1601 80.97 77.7001 80.86 77.9701 80.45C78.2401 80.05 78.1201 79.5 77.7201 79.23H77.7301ZM65.6001 75.93C63.7501 76.34 62.0201 77.27 60.4201 78.7C61.6101 74.15 61.1101 70.29 58.9101 67.12C62.7001 68.29 66.2301 67.83 69.4801 65.74C68.9101 67.38 68.7201 68.98 68.9301 70.54C69.0801 71.62 69.4101 72.67 69.9301 73.71C70.3601 74.58 70.9301 75.43 71.6201 76.27C69.4701 75.63 67.4501 75.52 65.5901 75.93H65.6001Z" fill="#245742"/>
<path d="M203.34 44.77C198.92 47.31 195.17 48.09 192.21 47.07C189.82 46.25 187.81 44.22 186.24 41.02C186.03 40.52 185.81 40.01 185.56 39.5C185.41 39.19 185.09 39 184.77 39C184.65 39 184.53 39.02 184.41 39.08C183.98 39.27 183.77 39.78 183.95 40.22C184.17 40.75 184.39 41.26 184.63 41.74C187.48 48.75 185.52 54.13 178.67 58.14C178.25 58.38 178.11 58.92 178.35 59.34C178.59 59.76 179.13 59.9 179.55 59.66C185.9 56.01 191.75 57.79 197.43 65.09C197.72 65.46 198.24 65.54 198.63 65.27C199.01 65 199.12 64.48 198.88 64.08C196.68 60.51 195.95 57.39 196.67 54.57C197.44 51.53 199.98 48.74 204.23 46.3C204.65 46.06 204.8 45.52 204.55 45.1C204.31 44.68 203.77 44.54 203.35 44.78L203.34 44.77ZM194.95 54.14C194.49 55.98 194.54 57.94 195.11 60.01C191.58 56.91 187.9 55.62 184.08 56.17C186.82 53.31 187.99 49.94 187.58 46.1C188.79 47.34 190.14 48.23 191.63 48.74C192.66 49.09 193.75 49.27 194.91 49.27C195.88 49.27 196.89 49.15 197.95 48.9C196.42 50.54 195.42 52.29 194.95 54.14Z" fill="#245742"/>
<path d="M216.29 147.26C234.952 147.26 250.08 132.132 250.08 113.47C250.08 94.8083 234.952 79.68 216.29 79.68C197.628 79.68 182.5 94.8083 182.5 113.47C182.5 132.132 197.628 147.26 216.29 147.26Z" stroke="#245742" stroke-width="3" stroke-linecap="round" stroke-linejoin="round"/>
<path d="M183.53 104.86L185.53 97.25C190.3 79.12 208.87 68.29 227 73.06C245.13 77.83 255.96 96.4 251.19 114.53L249.19 122.14" stroke="#245742" stroke-width="3" stroke-linecap="round" stroke-linejoin="round"/>
<path d="M251.837 112.091L258.452 113.831C260.938 114.485 262.427 117.038 261.773 119.523L259.226 129.204C258.573 131.689 256.02 133.179 253.534 132.525L246.919 130.785L251.837 112.091Z" stroke="#245742" stroke-width="3" stroke-linecap="round" stroke-linejoin="round"/>
<path d="M181.246 113.54L174.631 111.8C172.146 111.146 170.656 108.593 171.31 106.107L173.857 96.4267C174.511 93.9412 177.064 92.4518 179.549 93.1057L186.164 94.846L181.246 113.54Z" stroke="#245742" stroke-width="3" stroke-linecap="round" stroke-linejoin="round"/>
<path d="M200.48 101.56C203.2 98.44 207.93 98.12 211.05 100.84" stroke="#245742" stroke-width="3" stroke-linecap="round" stroke-linejoin="round"/>
<path d="M226.21 105.28C230.18 104.1 234.35 106.36 235.53 110.32" stroke="#245742" stroke-width="3" stroke-linecap="round" stroke-linejoin="round"/>
<path d="M55.32 161.51C71.0767 161.51 83.85 148.737 83.85 132.98C83.85 117.223 71.0767 104.45 55.32 104.45C39.5634 104.45 26.79 117.223 26.79 132.98C26.79 148.737 39.5634 161.51 55.32 161.51Z" stroke="#245742" stroke-width="3" stroke-linecap="round" stroke-linejoin="round"/>
<path d="M29.7499 145.79L26.7799 139.85C19.6899 125.7 25.4199 108.48 39.5699 101.39C53.7199 94.3 70.9399 100.03 78.0299 114.18L80.9999 120.12" stroke="#245742" stroke-width="3" stroke-linecap="round" stroke-linejoin="round"/>
<path d="M77.0797 112.282L82.2385 109.697C84.1786 108.725 86.5405 109.51 87.5125 111.451L91.2974 119.006C92.2694 120.946 91.4841 123.308 89.544 124.28L84.3852 126.864L77.0752 112.273L77.0797 112.282Z" stroke="#245742" stroke-width="3" stroke-linecap="round" stroke-linejoin="round"/>
<path d="M33.1371 152.559L27.9783 155.144C26.0382 156.116 23.6763 155.33 22.7043 153.39L18.9194 145.835C17.9474 143.895 18.7327 141.533 20.6728 140.561L25.8316 137.977L33.1416 152.568L33.1371 152.559Z" stroke="#245742" stroke-width="3" stroke-linecap="round" stroke-linejoin="round"/>
<path d="M38.6602 134.25C38.6502 130.76 41.4702 127.91 44.9602 127.9" stroke="#245742" stroke-width="3" stroke-linecap="round" stroke-linejoin="round"/>
<path d="M57.0298 122.26C58.8798 119.3 62.7898 118.4 65.7498 120.26" stroke="#245742" stroke-width="3" stroke-linecap="round" stroke-linejoin="round"/>
<path d="M127.32 107.48C142.209 107.48 154.28 95.4096 154.28 80.52C154.28 65.6304 142.209 53.56 127.32 53.56C112.43 53.56 100.36 65.6304 100.36 80.52C100.36 95.4096 112.43 107.48 127.32 107.48Z" stroke="#245742" stroke-width="3" stroke-linecap="round" stroke-linejoin="round"/>
<path d="M100.31 81.3L100.13 75.03C99.7001 60.08 111.47 47.61 126.42 47.18C141.37 46.75 153.84 58.52 154.27 73.47L154.45 79.74" stroke="#245742" stroke-width="3" stroke-linecap="round" stroke-linejoin="round"/>
<path d="M154.209 71.4653L159.657 71.3074C161.706 71.248 163.424 72.869 163.483 74.9181L163.714 82.9047C163.774 84.9539 162.153 86.6716 160.104 86.7309L154.656 86.8888L154.209 71.4753L154.209 71.4653Z" stroke="#245742" stroke-width="3" stroke-linecap="round" stroke-linejoin="round"/>
<path d="M100.521 88.4515L95.0738 88.6094C93.0246 88.6687 91.307 87.0478 91.2476 84.9987L91.0161 77.012C90.9567 74.9629 92.5777 73.2452 94.6268 73.1858L100.075 73.028L100.521 88.4415L100.521 88.4515Z" stroke="#245742" stroke-width="3" stroke-linecap="round" stroke-linejoin="round"/>
<path d="M112.54 74.96C113.92 71.96 117.47 70.65 120.47 72.03" stroke="#245742" stroke-width="3" stroke-linecap="round" stroke-linejoin="round"/>
<path d="M133.07 72.02C135.84 70.22 139.54 71.01 141.34 73.78" stroke="#245742" stroke-width="3" stroke-linecap="round" stroke-linejoin="round"/>
<path d="M140.87 238.51C168.329 238.51 190.59 216.25 190.59 188.79C190.59 161.33 168.329 139.07 140.87 139.07C113.41 139.07 91.1499 161.33 91.1499 188.79C91.1499 216.25 113.41 238.51 140.87 238.51Z" stroke="#245742" stroke-width="3" stroke-linecap="round" stroke-linejoin="round"/>
<path d="M93.52 173.22L97.13 162.23C105.75 136.02 133.98 121.76 160.19 130.38C186.4 139 200.66 167.23 192.04 193.44L188.43 204.43" stroke="#245742" stroke-width="3" stroke-linecap="round" stroke-linejoin="round"/>
<path d="M193.202 189.935L202.759 193.077C206.359 194.26 208.317 198.136 207.133 201.736L202.529 215.739C201.345 219.339 197.47 221.297 193.87 220.113L184.313 216.971L193.199 189.944L193.202 189.935Z" stroke="#245742" stroke-width="3" stroke-linecap="round" stroke-linejoin="round"/>
<path d="M89.3887 185.763L79.8319 182.621C76.2316 181.437 74.274 177.562 75.4578 173.961L80.0616 159.959C81.2453 156.358 85.1206 154.401 88.721 155.585L98.2777 158.727L89.3918 185.753L89.3887 185.763Z" stroke="#245742" stroke-width="3" stroke-linecap="round" stroke-linejoin="round"/>
<path d="M118.71 169.89C122.98 165.55 129.97 165.5 134.3 169.78" stroke="#245742" stroke-width="3" stroke-linecap="round" stroke-linejoin="round"/>
<path d="M156.16 177.64C162.09 176.26 168.02 179.94 169.4 185.87" stroke="#245742" stroke-width="3" stroke-linecap="round" stroke-linejoin="round"/>
<path d="M110.08 188.94L167.12 208.62C167.12 208.62 153.05 238.99 124.2 226.93C109.18 220.65 104.11 204.44 110.08 188.94Z" fill="#245742" stroke="#245742" stroke-width="3" stroke-linecap="round" stroke-linejoin="round"/>
<path d="M167.56 204.48C167.56 204.48 168.15 210.34 169.07 211.84" stroke="#245742" stroke-width="3" stroke-linecap="round" stroke-linejoin="round"/>
<path d="M105.78 189.08C105.78 189.08 111.34 187.14 112.58 185.89" stroke="#245742" stroke-width="3" stroke-linecap="round" stroke-linejoin="round"/>
<path d="M111 209.43C111 209.43 114.69 203.78 122.31 207.7C129.93 211.62 127.27 213.82 132.23 215.78C137.19 217.74 144.84 213.19 151.5 216.93C158.16 220.67 154.35 223.63 154.35 223.63C154.35 223.63 141.32 233.34 125.35 225.77C109.38 218.2 111 209.43 111 209.43Z" fill="white"/>
</g>
<defs>
<clipPath id="clip0_201_325">
<rect width="246.42" height="201.03" fill="white" transform="translate(17 39)"/>
</clipPath>
</defs>
</svg>
