<svg width="626" height="600" viewBox="0 0 626 600" fill="none" xmlns="http://www.w3.org/2000/svg">
<g clip-path="url(#clip0_214_122)">
<path d="M405.815 232.061C406.139 232.061 406.486 231.991 406.811 231.876C409.752 230.72 412.647 229.54 415.519 228.384C416.909 227.806 417.58 226.234 417.001 224.824C416.422 223.437 414.824 222.766 413.434 223.344C410.586 224.5 407.714 225.679 404.796 226.812C403.383 227.367 402.711 228.939 403.267 230.35C403.684 231.413 404.726 232.084 405.815 232.084V232.061Z" fill="#245742"/>
<path d="M509.017 265.839C510.245 265.839 511.357 265.03 511.658 263.782C512.028 262.325 511.148 260.845 509.689 260.476C502.926 258.765 499.058 252.337 499.012 252.268C498.248 250.973 496.58 250.534 495.283 251.297C493.986 252.06 493.546 253.724 494.311 255.019C494.426 255.204 495.978 257.77 498.85 260.406C414.894 298.832 362.806 307.942 350.022 309.722C350.392 308.196 350.67 306.624 350.624 304.913C350.578 303.41 349.535 302.231 347.822 302.254C346.316 302.3 345.135 303.549 345.158 305.052C345.32 311.549 339.924 316.843 339.878 316.89C338.789 317.93 338.766 319.664 339.808 320.751C340.341 321.306 341.059 321.583 341.777 321.583C342.448 321.583 343.12 321.329 343.653 320.82C343.745 320.728 344.463 320.011 345.39 318.878C349.049 335.293 362.528 354.067 381.983 369.281C402.434 385.257 425.548 394.135 445.836 394.135C449.426 394.135 452.9 393.858 456.281 393.303C506.423 384.933 508.392 320.288 504.154 264.105C505.451 264.776 506.84 265.377 508.392 265.77C508.624 265.839 508.832 265.863 509.064 265.863L509.017 265.839ZM455.332 387.893C435.414 391.222 410.864 383.569 388.862 367.523C391.502 361.165 397.987 350.137 411.42 350.137C430.319 350.137 428.211 360.264 440.81 361.05C453.294 361.836 457.74 310.878 496.511 339.964C491.253 364.888 479.395 383.893 455.332 387.916V387.893Z" fill="#245742"/>
<path d="M103.851 339.432C105.356 339.733 106.584 338.392 106.7 336.912C106.815 335.432 105.727 334.161 104.268 333.999C102.507 333.814 100.794 333.675 99.1261 333.606C75.7573 331.016 63.9688 317.768 63.1813 293.168C63.135 291.665 61.9075 290.555 60.3789 290.532C58.8735 290.578 57.6923 291.827 57.7386 293.33C58.3176 316.011 44.8152 329.328 16.4901 334.022C15.0542 334.253 14.0583 335.571 14.2204 337.004C14.3825 338.438 15.6332 339.478 17.0923 339.432C30.0852 338.692 39.6736 341.328 46.3206 347.432C53.4771 354.021 57.3217 365.05 57.7386 380.217C57.7849 381.696 58.9893 382.875 60.4715 382.875H60.541C62.0464 382.829 63.2276 381.581 63.2045 380.078C62.7876 364.287 66.2153 352.934 73.3718 346.345C79.1619 341.027 87.6849 338.577 98.7324 339.016C100.4 339.201 102.114 339.316 103.874 339.409L103.851 339.432ZM69.6662 342.368C65.1036 346.553 61.838 352.241 59.8925 359.362C57.6691 352.773 54.3804 347.455 50.0031 343.432C45.6721 339.455 40.2294 336.704 33.7445 335.201C47.4323 330.161 56.3722 322.022 60.5179 310.832C64.2698 322.531 71.7275 330.693 82.8444 335.247C77.6565 336.704 73.256 339.085 69.6662 342.368Z" fill="#245742"/>
<path d="M450.584 63.9976C464.318 56.1135 475.921 53.709 485.139 56.8765C492.574 59.4197 498.781 65.7085 503.667 75.6272C504.316 77.1763 505.011 78.7485 505.775 80.3438C506.238 81.3148 507.211 81.8697 508.23 81.8697C508.601 81.8697 508.971 81.8004 509.342 81.6385C510.685 81.0374 511.31 79.4652 510.754 78.1242C510.083 76.4827 509.388 74.9105 508.647 73.4076C499.8 51.6744 505.868 35.0045 527.152 22.5888C528.449 21.8258 528.889 20.1611 528.125 18.8664C527.36 17.5716 525.716 17.1323 524.396 17.8722C504.686 29.1781 486.529 23.6754 468.904 1.04048C468.001 -0.115541 466.379 -0.346746 465.198 0.462471C463.994 1.29481 463.67 2.91324 464.434 4.13863C471.266 15.2133 473.513 24.8546 471.312 33.6173C468.927 43.0504 461.029 51.6744 447.851 59.2579C446.554 60.0209 446.091 61.6855 446.855 62.9803C447.596 64.275 449.287 64.7374 450.584 63.9745V63.9976ZM476.593 34.9583C478.029 29.2706 477.867 23.1899 476.083 16.7624C487.038 26.3574 498.479 30.3573 510.314 28.6464C501.791 37.5246 498.178 47.952 499.452 59.859C495.7 55.9979 491.531 53.2697 486.899 51.6975C483.703 50.6108 480.322 50.0559 476.709 50.0559C473.698 50.0559 470.548 50.4259 467.259 51.1888C472.007 46.1255 475.134 40.6921 476.593 34.9351V34.9583Z" fill="#245742"/>
<path d="M22.5582 286C22.9751 286.393 23.4151 286.81 23.8783 287.18C24.99 288.151 26.6807 288.035 27.6766 286.948C28.6725 285.862 28.6262 284.174 27.5608 283.157C27.1207 282.717 26.6807 282.324 26.2407 281.931C21.3075 277.122 21.0527 272.267 25.3606 266.371C26.2407 265.146 25.9859 263.458 24.7584 262.556C23.5541 261.655 21.8402 261.932 20.9369 263.134C18.2504 266.764 13.9194 270.209 4.05308 264.868C2.77927 264.175 1.18121 264.614 0.416915 265.839C-0.347375 267.065 2.99411e-05 268.683 1.18121 269.516C4.33101 271.689 6.04487 273.955 6.46176 276.405C6.9018 279.111 5.76695 282.324 3.05719 286C2.15394 287.203 2.43186 288.914 3.6362 289.815C4.12256 290.162 4.70157 290.347 5.25742 290.347C6.09119 290.347 6.92496 289.954 7.45765 289.237C10.2832 285.446 13.0624 283.411 15.749 283.18C17.8566 283.041 20.1263 283.943 22.5582 285.977V286ZM11.9739 278.509C12.0434 277.492 11.9971 276.498 11.8349 275.527C11.696 274.648 11.4412 273.793 11.117 272.96C13.2709 273.169 15.1932 272.984 16.8839 272.498C16.6755 274.278 16.8144 276.036 17.2776 277.77C16.606 277.7 15.9343 277.7 15.2627 277.77C14.151 277.862 13.0393 278.116 11.9507 278.533L11.9739 278.509Z" fill="#245742"/>
<path d="M280.147 175.6C280.68 175.369 281.212 175.115 281.745 174.837C283.065 174.167 283.598 172.571 282.972 171.253C282.347 169.912 280.772 169.334 279.406 169.912C278.85 170.167 278.294 170.421 277.785 170.675C271.462 173.38 266.853 171.785 263.031 165.589C262.244 164.294 260.553 163.901 259.279 164.687C258.006 165.473 257.589 167.138 258.376 168.433C260.715 172.294 262.267 177.612 253.582 184.686C252.47 185.611 252.239 187.23 253.096 188.409C253.953 189.588 255.574 189.865 256.801 189.102C260.021 187.022 262.753 186.305 265.208 186.837C267.872 187.438 270.443 189.727 272.805 193.611C273.315 194.443 274.218 194.929 275.144 194.929C275.631 194.929 276.117 194.79 276.557 194.536C277.854 193.75 278.248 192.085 277.483 190.79C275.028 186.744 274.195 183.392 275.005 180.825C275.654 178.814 277.391 177.057 280.193 175.6H280.147ZM269.748 179.161C269.4 180.224 269.215 181.334 269.192 182.513C268.266 182.051 267.339 181.727 266.366 181.496C265.51 181.288 264.606 181.195 263.726 181.172C264.745 179.276 265.301 177.427 265.51 175.669C267.084 176.525 268.775 177.08 270.535 177.288C270.234 177.889 269.979 178.513 269.771 179.137L269.748 179.161Z" fill="#245742"/>
<path d="M260.623 345.212C262.638 329.167 258.77 311.688 249.668 295.989C240.59 280.29 227.365 268.175 212.427 261.909C197.233 255.528 182.11 255.921 169.788 263.019C157.49 270.117 149.569 282.995 147.508 299.318C145.493 315.364 149.361 332.843 158.463 348.542C167.542 364.24 180.766 376.356 195.705 382.621C202.885 385.627 210.041 387.13 216.873 387.13C224.539 387.13 231.835 385.257 238.32 381.511C250.618 374.413 258.539 361.535 260.6 345.212H260.623ZM197.812 377.581C183.986 371.778 171.688 360.495 163.188 345.813C154.688 331.132 151.052 314.855 152.928 299.989C154.781 285.4 161.729 273.955 172.521 267.735C178.172 264.475 184.518 262.857 191.258 262.857C197.396 262.857 203.834 264.221 210.296 266.926C224.123 272.729 236.421 284.012 244.92 298.694C253.42 313.375 257.056 329.652 255.181 344.519C253.328 359.108 246.38 370.552 235.587 376.772C224.794 382.991 211.384 383.269 197.789 377.581H197.812Z" fill="#245742"/>
<path d="M530.116 200.131C531.436 170.583 508.461 145.474 478.862 144.156C451.649 142.908 428.049 162.375 423.532 188.617C403.73 188.709 388.861 199.437 383.141 204.293C373.854 194.166 360.722 187.553 345.922 186.883C316.347 185.519 291.171 208.501 289.851 238.049C289.203 252.36 294.182 266.071 303.863 276.637C313.544 287.203 326.769 293.376 341.105 294.023C341.916 294.069 342.726 294.069 343.537 294.069C372.047 294.069 395.879 271.573 397.176 242.858C397.732 230.373 393.934 218.697 387.148 209.24C392.034 205.125 405.398 195.368 422.814 194.975C422.814 195.091 422.814 195.183 422.814 195.299C422.166 209.61 427.145 223.321 436.826 233.887C446.507 244.453 459.732 250.626 474.068 251.273C474.879 251.32 475.689 251.32 476.5 251.32C505.01 251.32 528.842 228.823 530.139 200.108L530.116 200.131ZM390.807 242.58C389.626 268.614 367.531 288.844 341.383 287.665C328.76 287.087 317.088 281.654 308.565 272.336C300.042 263.019 295.641 250.95 296.22 238.326C297.401 212.292 319.543 192.085 345.621 193.241C371.7 194.42 391.965 216.546 390.784 242.58H390.807ZM474.323 244.938C461.701 244.36 450.028 238.927 441.505 229.61C432.982 220.292 428.581 208.223 429.16 195.599C430.295 170.282 451.279 150.468 476.431 150.468C477.149 150.468 477.867 150.468 478.585 150.514C504.663 151.693 524.928 173.82 523.747 199.853C522.566 225.887 500.471 246.141 474.323 244.938Z" fill="#245742"/>
<path d="M346.061 202.027C335.825 201.564 326.028 205.125 318.454 212.015C310.881 218.905 306.48 228.338 306.017 238.557C305.948 240.314 307.291 241.794 309.051 241.887C309.098 241.887 309.144 241.887 309.19 241.887C310.881 241.887 312.294 240.546 312.386 238.835C312.757 230.326 316.439 222.465 322.762 216.708C329.062 210.951 337.214 208.015 345.783 208.385C347.544 208.477 349.026 207.113 349.119 205.356C349.188 203.599 347.845 202.119 346.085 202.027H346.061Z" fill="#245742"/>
<path d="M478.098 158.237C456.953 157.266 439.003 173.681 438.054 194.767C437.984 196.524 439.328 198.004 441.088 198.096C441.134 198.096 441.18 198.096 441.227 198.096C442.918 198.096 444.33 196.756 444.423 195.045C445.21 177.45 460.149 163.832 477.797 164.595C479.557 164.687 481.039 163.323 481.132 161.566C481.202 159.809 479.858 158.329 478.098 158.237Z" fill="#245742"/>
<path d="M608.954 185.819C607.866 185.588 606.731 185.542 605.596 185.611L611.409 184.501C611.317 183.97 610.853 181.866 609.857 179.322L611.131 179.9C614.374 172.872 630.239 137.197 624.935 124.458C623.939 122.076 622.248 120.388 620.025 119.556C617.315 118.562 614.49 118.793 611.849 120.25C608.445 122.099 605.527 126.03 603.072 130.631C603.095 119.579 601.983 108.343 597.86 103.718C594.664 100.112 589.337 100.135 586.118 103.626C580.027 110.238 580.351 129.382 581.903 149.774C577.132 146.029 570.624 142.191 564.834 143C562.217 143.37 558.581 144.827 556.149 149.728C549.293 163.392 562.356 175.323 568.053 179.669C564.811 188.085 556.867 213.68 572.662 228.985C573.033 231.436 571.689 240.73 565.251 249.586C560.155 256.591 550.451 264.868 533.313 265.862C532.942 254.58 531.599 243.204 529.097 231.829C528.773 230.349 527.337 229.425 525.855 229.748C524.373 230.072 523.446 231.529 523.771 232.985C541.326 313.121 502.579 393.256 433.121 431.105C437.591 426.966 441.829 422.365 445.767 417.209C446.67 416.007 446.438 414.296 445.257 413.394C444.053 412.493 442.339 412.724 441.436 413.926C429.416 429.717 414.732 440.376 397.802 445.74L383.35 394.459L389.256 392.447C390.691 391.962 391.433 390.413 390.946 388.979C390.46 387.546 388.908 386.806 387.472 387.291L381.867 389.21L379.598 381.188C379.181 379.754 377.675 378.922 376.239 379.292C374.78 379.708 373.947 381.211 374.34 382.667L376.633 390.806C345.76 399.268 314.841 404.1 285.497 405.187C278.804 398.019 272.365 390.112 266.321 381.372C277.53 370.113 284.224 354.784 285.891 338.022C297.61 335.617 308.588 333.143 322.16 329.837C323.619 329.49 324.522 328.01 324.175 326.531C323.805 325.051 322.322 324.172 320.863 324.542C307.917 327.71 297.332 330.091 286.215 332.38C286.748 315.941 282.649 298.485 273.338 282.37C270.999 278.324 268.359 274.579 265.579 271.018C271.231 270.07 276.905 269.076 282.788 267.943C284.27 267.666 285.243 266.232 284.942 264.753C284.664 263.273 283.251 262.325 281.745 262.602C274.844 263.92 268.127 265.123 261.55 266.209C249.9 253.123 235.425 244.014 220.301 239.69C220.417 221.24 223.034 203.992 227.898 188.293C230.631 188.062 233.363 187.831 236.143 187.53C237.648 187.368 238.737 186.027 238.575 184.525C238.412 183.022 237.092 181.912 235.564 182.097C233.618 182.305 231.696 182.467 229.774 182.629C242.025 147.925 265.51 121.359 296.637 106.817L313.429 166.398C306.921 168.201 300.366 169.936 293.928 171.508C292.469 171.855 291.565 173.334 291.913 174.791C292.214 176.039 293.326 176.872 294.576 176.872C294.785 176.872 295.016 176.849 295.225 176.802C301.733 175.207 308.357 173.473 314.911 171.646L318.871 185.704C319.219 186.906 320.307 187.692 321.488 187.692C321.743 187.692 321.975 187.669 322.23 187.6C323.689 187.183 324.522 185.681 324.129 184.224L320.168 170.12C353.334 160.572 381.543 149.705 405.375 137.289C411.049 143.208 416.492 149.589 421.587 156.456C422.12 157.173 422.954 157.566 423.788 157.566C424.343 157.566 424.922 157.381 425.409 157.034C426.613 156.133 426.891 154.445 425.988 153.219C421.078 146.584 415.844 140.388 410.378 134.631C421.194 128.735 431.199 122.539 440.231 115.926C446.994 119.764 453.247 124.134 458.69 129.082C458.713 129.082 458.736 129.105 458.783 129.128C458.829 129.151 458.829 129.174 458.852 129.197C462.928 132.411 466.912 135.833 470.664 139.347C471.197 139.833 471.868 140.087 472.54 140.087C473.258 140.087 473.999 139.81 474.532 139.232C475.574 138.145 475.505 136.411 474.416 135.37C470.548 131.74 466.449 128.226 462.257 124.92C461.655 124.365 460.983 123.856 460.335 123.301C460.335 123.278 460.311 123.232 460.288 123.209C431.222 85.7769 369.963 63.7431 317.852 71.9046C253.096 82.0776 206.498 119.14 186.533 173.149C186.07 173.357 185.63 173.681 185.352 174.143C171.085 197.588 162.192 224.454 159.528 251.875C133.241 274.533 128.03 317.745 149.037 354.067C150.426 356.472 151.909 358.807 153.46 361.05C133.612 373.881 126.548 390.991 122.264 406.111C118.465 419.544 119.693 429.255 120.642 437.047C121.731 445.902 122.287 450.341 115.292 455.335C102.299 464.583 92.2477 494.802 96.0692 513.067C97.9915 522.199 103.04 527.91 110.73 529.529C117.863 531.031 123.514 529.806 127.521 525.899C129.142 524.303 130.346 522.384 131.227 520.35C134.538 527.008 139.703 532.789 147.647 532.789C147.74 532.765 148.018 532.789 148.18 532.789C155.568 532.789 159.181 529.598 160.918 526.87C162.586 524.28 163.188 521.136 163.188 517.899C167.912 522.246 173.795 525.089 180.373 522.639C192.879 517.968 190.193 498.894 187.923 489.206C188.317 489.206 188.71 489.299 189.104 489.299C191.698 489.299 194.06 488.813 196.029 487.819C199.387 486.108 201.333 483.08 201.541 479.311C203.857 445.717 176.482 443.659 163.304 442.665C161.706 442.549 159.83 442.411 158.533 442.226C159.366 412.655 178.427 393.488 183.407 388.956C187.738 391.453 192.231 393.58 196.909 395.268C200.545 396.586 204.182 397.534 207.795 398.274C207.818 398.32 207.841 398.366 207.864 398.389C227.62 419.822 251.498 435.867 277.484 446.064C272.759 446.064 267.525 447.035 262.383 449.694C247.862 457.208 238.436 475.288 234.336 503.379C227.041 553.435 245.036 579.238 253.119 588C260.16 595.63 268.173 600.092 274.82 600.092C275.122 600.092 275.399 600.092 275.677 600.069C282.672 599.653 290.129 595.491 296.128 588.648C301.779 582.22 310.603 568.255 310.812 543.886C318.269 549.574 327.116 552.996 337.492 551.771C344.695 550.915 350.763 547.378 355.511 541.297C368.319 524.858 368.434 492.975 367.415 475.635L464.364 596.994L466.958 595.676C467.537 595.376 525.253 564.972 521.038 500.813C519.602 478.848 513.58 465.485 503.158 461.092C488.729 455.011 472.285 468.884 471.637 469.438C470.618 470.271 448.754 488.628 442.408 518.015L393.146 452.815C394.328 452.514 395.509 452.214 396.667 451.89C468.302 431.775 518.93 372.309 530.788 303.063C530.95 303.063 531.066 303.063 531.251 303.063C541.882 303.063 577.225 300.358 589.963 265.631C594.132 254.071 596.656 245.655 597.837 241.586C600.617 241.447 604.762 240.615 608.746 237.494C615.416 232.268 619.145 222.766 619.84 209.24C620.766 191.068 613.424 186.813 608.954 185.912V185.819ZM378.115 395.985L392.521 447.15C359.031 455.335 322.16 441.578 290.569 410.319C318.871 408.886 348.493 404.1 378.115 395.985ZM318.709 164.849L301.733 104.551C312.572 100.065 324.245 96.9904 336.658 95.4875C336.682 95.4875 336.705 95.5107 336.728 95.5107C358.962 100.458 381.566 113.799 401.415 133.197C378.231 145.127 350.833 155.601 318.732 164.826L318.709 164.849ZM406.44 130.515C389.719 113.868 370.982 101.453 352.014 94.4471C352.894 94.4471 353.751 94.3778 354.631 94.3778C378.926 94.3778 409.799 100.25 434.835 112.967C426.219 119.14 416.724 124.989 406.417 130.538L406.44 130.515ZM318.686 77.2223C358.892 70.8873 406.232 83.9966 437.29 108.088C411.374 94.9789 379.621 88.8982 354.654 88.8982C273.107 88.8982 215.947 150.214 214.882 238.303C203.51 235.945 191.999 236.268 181.16 239.667C181.16 238.58 181.114 237.494 181.114 236.407C181.114 151.532 233.827 90.5397 318.663 77.1992L318.686 77.2223ZM179.701 196.663C177.038 209.24 175.671 222.512 175.671 236.407C175.671 238.141 175.717 239.875 175.764 241.609C173.425 242.603 171.132 243.713 168.885 245.008C167.727 245.678 166.685 246.464 165.573 247.181C167.774 229.771 172.568 212.662 179.701 196.64V196.663ZM151.399 444.607V446.064L152.441 447.081C154.341 448.977 157.513 449.208 162.771 449.601C179.724 450.896 196.145 454.179 194.454 478.756C194.385 480.051 193.898 480.837 192.81 481.369C189.822 482.871 183.059 482.132 176.366 477.762L172.475 483.704C174.976 485.322 177.593 486.571 180.187 487.472C182.735 496.605 185.051 513.159 177.871 515.841C168.839 519.24 159.737 501.715 158.255 498.709C158.139 498.478 158.046 498.293 158 498.177L151.561 501.183C151.561 501.183 151.77 501.622 152.001 502.108C154.781 508.142 157.768 518.454 154.896 522.939C154.456 523.633 152.997 525.76 147.694 525.575C137.943 525.575 134.075 508.281 132.987 502.015C132.825 500.744 132.662 499.865 132.616 499.518L125.599 500.559C125.622 500.767 125.738 501.761 125.992 503.287C126.525 508.281 126.502 516.835 122.518 520.72C120.295 522.893 116.913 523.471 112.189 522.454C107.348 521.436 104.337 517.853 103.017 511.495C99.5201 494.732 109.595 467.982 119.415 460.976C129.86 453.532 128.864 445.416 127.683 436.029C126.78 428.862 125.691 419.937 129.096 407.892C133.033 393.95 139.541 378.182 157.722 366.575C163.419 373.673 169.997 379.8 177.2 384.817C169.788 391.869 151.191 412.724 151.376 444.538L151.399 444.607ZM198.762 390.02C180.35 383.384 164.346 369.627 153.738 351.27C131.921 313.537 139.935 268.013 171.618 249.747C180.558 244.592 190.424 242.164 200.476 242.164C226.091 242.164 252.957 257.978 268.614 285.052C290.431 322.785 282.417 368.332 250.734 386.575C235.471 395.383 217.012 396.586 198.762 390.02ZM216.665 399.43C218.402 399.568 220.139 399.661 221.876 399.661C233.062 399.661 243.855 396.863 253.49 391.291C256.663 389.465 259.535 387.314 262.268 385.026C267.363 392.308 272.713 399.083 278.271 405.302C256.825 405.649 236.351 403.984 217.452 400.216C217.198 399.961 216.943 399.684 216.688 399.43H216.665ZM272.782 410.828C276.233 410.828 279.707 410.736 283.204 410.62C305.184 433.555 329.965 448.168 354.724 453.092C307.199 455.497 260.577 439.174 224.609 406.967C239.872 409.487 255.991 410.805 272.782 410.805V410.828ZM337.214 458.664C338.164 469.022 338.65 490.432 332.165 497.622C330.845 499.079 329.386 499.68 327.487 499.726C317.875 499.564 309.793 481.461 303.887 468.236C300.436 460.491 297.958 455.127 295.364 451.936C308.959 455.728 322.994 458.017 337.191 458.641L337.214 458.664ZM349.906 536.835C346.339 541.436 342.009 543.979 336.658 544.603C303.84 548.487 287.003 491.935 286.841 491.357L280.008 493.345C280.495 494.987 288.022 520.304 303.562 537.112C305.045 563.377 296.244 577.665 290.801 583.862C286.03 589.295 280.356 592.578 275.237 592.879C271.786 593.041 265.302 590.659 258.33 583.099C250.942 575.076 234.498 551.331 241.354 504.281C245.059 478.941 253.443 462.202 265.626 455.89C277.414 449.786 288.462 455.219 288.925 455.451C290.847 456.468 294.623 464.93 297.355 471.103C304.396 486.918 313.174 506.57 327.325 506.801C331.169 506.778 334.713 505.321 337.4 502.339C346.27 492.513 345.158 468.259 344.325 458.803C344.718 458.803 345.112 458.826 345.506 458.826C349.814 458.826 354.145 458.664 358.452 458.364L359.263 464.491C359.332 464.999 365.817 516.281 349.86 536.765L349.906 536.835ZM447.249 536.095L448.152 527.078C451.279 495.773 475.921 475.034 476.199 474.779C476.338 474.664 490.119 463.219 500.402 467.543C508.022 470.756 512.7 482.386 513.951 501.183C517.355 553.135 476.825 581.365 466.194 587.815L362.552 458.063C370.241 457.37 377.953 456.19 385.619 454.526L447.272 536.095H447.249ZM612.729 208.801C612.15 219.945 609.302 227.876 604.461 231.737C600.292 235.066 595.961 234.395 595.822 234.372L592.557 233.748L591.723 236.962C591.723 236.962 589.036 247.181 583.293 263.134C572.129 293.584 541.65 295.965 531.854 295.942C532.849 288.382 533.359 280.729 533.405 273.007C561.29 271.55 572.616 252.892 576.206 244.753C579.425 237.471 581.278 227.945 578.128 224.384C562.425 209.564 575.534 180.201 575.673 179.9L576.947 177.103L574.353 175.438C574.191 175.323 556.936 164.086 562.541 152.896C563.699 150.584 564.996 150.144 565.876 150.029C570.832 149.312 579.332 156.271 583.547 160.826L589.708 167.485V158.422C589.708 157.589 589.546 155.647 589.337 152.942C587.207 127.186 587.902 112.204 591.399 108.435C591.746 108.065 591.908 108.065 592.024 108.065C592.094 108.065 592.256 108.065 592.58 108.435C597.142 113.568 596.355 139.301 594.363 155.901L601.358 157.081C603.581 146.977 609.348 129.729 615.3 126.469C616.342 125.891 617.06 126.03 617.593 126.215C617.755 126.284 618.056 126.4 618.404 127.163C621.345 134.214 613.193 157.589 606.43 173.08C604.785 171.022 602.655 169.288 599.922 168.502C594.271 166.884 587.925 169.843 581.069 177.288L586.303 182.097C591.051 176.964 595.197 174.537 597.976 175.323C601.798 176.386 603.952 183.23 604.461 185.681C595.73 186.883 586.628 195.715 583.293 204.778C579.286 215.622 585.284 219.76 587.23 220.754C593.553 224.038 603.442 221.171 607.958 214.72L602.145 210.651C599.528 214.373 593.414 215.968 590.542 214.466C588.295 213.286 588.99 209.888 589.986 207.229C592.997 199.044 602.006 191.53 607.611 192.709C611.409 193.495 613.308 199.322 612.822 208.732L612.729 208.801Z" fill="#245742"/>
<path d="M468.441 572.394C468.302 571.839 453.989 517.552 491.624 484.698L486.946 479.357C445.929 515.194 460.937 571.885 461.585 574.267L468.441 572.394Z" fill="#245742"/>
</g>
<defs>
<clipPath id="clip0_214_122">
<rect width="626" height="600" fill="white"/>
</clipPath>
</defs>
</svg>
