<svg width="82" height="82" viewBox="0 0 82 82" fill="none" xmlns="http://www.w3.org/2000/svg">
<path d="M5.23926 75.031C18.647 63.1184 30.997 57.7741 41.9408 59.1831C50.7627 60.3061 59.1038 65.8798 66.8086 75.7752C67.8745 77.3434 69.0086 78.9296 70.2418 80.5276C70.9879 81.4851 72.2008 81.8948 73.3288 81.6613C73.7461 81.5749 74.1474 81.4113 74.5108 81.1427C75.8722 80.1679 76.2093 78.2932 75.2777 76.9068C74.1585 75.2368 73.0089 73.6538 71.8599 72.1512C57.0321 50.0322 59.9532 30.1215 80.6938 11.4374C81.9582 10.3055 82.0689 8.34873 80.9337 7.06886C79.8018 5.80445 77.8604 5.6906 76.5774 6.8103C57.3148 23.9153 35.9095 21.9483 11.1416 0.855476C9.88708 -0.222421 8.02461 -0.110871 6.88436 1.07595C5.74411 2.26278 5.7443 4.13211 6.87891 5.33151C17.0126 16.0617 21.7204 26.2712 21.2753 36.4998C20.7861 47.5273 14.0228 58.9186 1.15059 70.382C-0.129281 71.5172 -0.239983 73.474 0.895164 74.7538C2.02711 76.0182 3.98712 76.1443 5.25153 75.0124L5.23926 75.031ZM27.4269 36.7897C27.7226 30.1212 26.1239 23.4098 22.6868 16.6921C37.0587 24.8529 50.6482 26.665 63.39 22.0454C55.9889 33.8589 54.3546 46.2837 58.5176 59.2327C53.4746 55.8127 48.2085 53.728 42.7166 53.0438C38.9284 52.5709 35.0298 52.7333 31.0429 53.5585C27.705 54.2494 24.299 55.3895 20.828 56.9943C24.93 50.2632 27.1409 43.5045 27.4269 36.7897Z" fill="#245742"/>
</svg>
